<?xml version="1.0" encoding="utf-8"?>
<!-- Generator: Adobe Illustrator 18.1.0, SVG Export Plug-In . SVG Version: 6.00 Build 0)  -->
<svg version="1.1" id="Layer_1" xmlns="http://www.w3.org/2000/svg" xmlns:xlink="http://www.w3.org/1999/xlink" x="0px" y="0px"
	 viewBox="0 0 277 46.6" enable-background="new 0 0 277 46.6" xml:space="preserve">
<g>
	<g>
		<circle fill="#E23053" cx="5.1" cy="16.5" r="5.1"/>
		<circle fill="#93C01F" cx="5.1" cy="28.2" r="5.1"/>
		<circle fill="#93C01F" cx="15.7" cy="28.2" r="5.1"/>
		<circle fill="#009EE2" cx="5.1" cy="39.9" r="5.1"/>
		<circle fill="#009EE2" cx="15.7" cy="39.9" r="5.1"/>
		<circle fill="#009EE2" cx="26.4" cy="39.9" r="5.1"/>
		<circle fill="#E23053" cx="15.7" cy="16.5" r="5.1"/>
		<circle fill="#E23053" cx="26.4" cy="16.5" r="5.1"/>
		<circle fill="#F8B133" cx="26.4" cy="5.1" r="5.1"/>
		<circle fill="#F8B133" cx="15.7" cy="5.1" r="5.1"/>
		<circle fill="#F8B133" cx="5.1" cy="5.1" r="5.1"/>
		<circle fill="#93C01F" cx="26.4" cy="28.2" r="5.1"/>
		<circle fill="#009EE2" cx="37.2" cy="39.9" r="5.1"/>
		<circle fill="#F8B133" cx="37.2" cy="5.1" r="5.1"/>
		<circle fill="#93C01F" cx="37.2" cy="28.2" r="5.1"/>
		<circle fill="#E23053" cx="37.2" cy="16.5" r="5.1"/>
	</g>
	<g>
		<path fill="#FFFFFF" d="M65.7,41.6h5.8v4.2H55.4v-4.2h5.8V4.7h-5.8V0.5h18.5c3.7,0,7.4,0.6,10.5,2.9c3.3,2.5,5.2,6.5,5.2,10.7
			c0,3.9-1.5,7.5-4.4,10.2c-3.2,3.1-6.7,3.6-10.9,3.6h-8.6V41.6z M73.9,23.7c2.9,0,5.4-0.2,7.7-2.1c2.3-1.9,3.5-4.5,3.5-7.4
			c0-2.9-1.4-5.6-3.6-7.4c-2.4-1.8-4.7-2.2-7.6-2.2h-8.1v19H73.9z"/>
		<path fill="#FFFFFF" d="M127.2,36.4c-2.8,6.2-9,10.2-15.9,10.2C101.8,46.6,94,39,94,29.4c0-9.4,7.5-17.6,17.1-17.6
			c9.9,0,17.5,7.7,17.5,17.5v1.3H98.2c0.4,6.8,6.2,12.2,13.1,12.2c4.8,0,9.1-2.3,11.5-6.5H127.2z M124.7,27.2
			c-1-6.8-6.8-11.5-13.6-11.5c-6.4,0-12.1,5.3-12.9,11.5H124.7z"/>
		<path fill="#FFFFFF" d="M143.2,19.9c2.7-4.9,7.5-8,13.2-8c9.7,0,17.4,7.7,17.4,17.4c0,3.6-1.3,7-2.8,9.5c-2.3,3.9-8,7.8-14.1,7.8
			c-5.7,0-10.8-2.8-13.7-7.8v6.9h-9.8v-3.9h5.6V4.4h-5.6V0.5h9.8V19.9z M169.7,29.1c0-7.2-5.9-13.1-13.2-13.1
			c-7.5,0-13.4,5.7-13.4,13.3c0,7.5,6.1,13.1,13.5,13.1C163.8,42.4,169.7,36.4,169.7,29.1z"/>
		<path fill="#FFFFFF" d="M187.6,19.9c2.7-4.9,7.5-8,13.2-8c9.7,0,17.4,7.7,17.4,17.4c0,3.6-1.3,7-2.8,9.5c-2.3,3.9-8,7.8-14.1,7.8
			c-5.7,0-10.8-2.8-13.7-7.8v6.9h-9.8v-3.9h5.6V4.4h-5.6V0.5h9.8V19.9z M214,29.1c0-7.2-5.9-13.1-13.2-13.1
			c-7.5,0-13.4,5.7-13.4,13.3c0,0.1,0,0.2,0,0.4c0.2,7.3,6.2,12.8,13.5,12.8C208.2,42.4,214,36.4,214,29.1z"/>
		<path fill="#FFFFFF" d="M232.4,41.8h5.5v3.9h-15.7v-3.9h6V4.4h-5.6V0.5h9.8V41.8z"/>
		<path fill="#FFFFFF" d="M275.6,36.4c-2.8,6.2-9,10.2-15.9,10.2c-9.6,0-17.4-7.7-17.4-17.2c0-9.4,7.5-17.6,17.1-17.6
			c9.9,0,17.5,7.7,17.5,17.5v1.3h-30.4c0.4,6.8,6.2,12.2,13.1,12.2c4.8,0,9.1-2.3,11.5-6.5H275.6z M273.1,27.2
			c-1-6.8-6.8-11.5-13.6-11.5c-6.4,0-12.1,5.3-12.9,11.5H273.1z"/>
	</g>
</g>
</svg>
